<svg width="80" height="80" xmlns="http://www.w3.org/2000/svg" xmlns:xlink="http://www.w3.org/1999/xlink" xml:space="preserve" overflow="hidden"><g transform="translate(-1103 -327)"><path d="M1165.07 348.09C1164.14 346.49 1161.57 345.52 1159.94 346.74 1149.26 354.74 1140.91 365.37 1135.79 377.62 1132.67 374.56 1129.84 371.26 1127.43 367.79 1126.28 366.13 1124.14 365.37 1122.3 366.44 1120.65 367.4 1119.79 369.9 1120.95 371.57 1124.86 377.21 1129.44 382.34 1134.7 386.76 1136.89 388.6 1140.04 387.93 1140.97 385.11 1142.1 381.64 1143.09 379.23 1144.7 376.07 1146.27 372.99 1148.06 370.02 1150.07 367.21 1153.55 362.33 1158.95 356.78 1163.71 353.22 1165.33 352.01 1166.16 349.98 1165.06 348.09Z" stroke="#000000" stroke-width="2.5" stroke-linejoin="round" fill="none"/></g></svg>